<svg width="454" height="503" viewBox="0 0 454 503" fill="none" xmlns="http://www.w3.org/2000/svg">
<path d="M7.61719 377.242L106.445 110.25H22.4609V70.4062H163.281V97.1641L64.2578 364.156H157.422V404H7.61719V377.242ZM184.766 336.422C184.766 329.26 185.156 322.685 185.938 316.695C186.849 310.576 188.151 304 189.844 296.969H229.102V313.18C229.102 322.164 229.622 330.107 230.664 337.008C231.836 343.909 233.659 349.768 236.133 354.586C238.737 359.273 242.122 362.854 246.289 365.328C250.586 367.672 255.794 368.844 261.914 368.844C271.549 368.844 278.906 366.24 283.984 361.031C289.062 355.693 291.602 347.945 291.602 337.789C291.602 332.581 291.211 327.828 290.43 323.531C289.779 319.104 288.542 314.742 286.719 310.445C285.026 306.148 282.682 301.656 279.688 296.969C276.693 292.151 272.852 286.812 268.164 280.953L215.43 218.258C206.055 206.279 198.828 194.234 193.75 182.125C188.672 169.885 186.133 156.865 186.133 143.062C186.133 131.995 187.826 121.839 191.211 112.594C194.727 103.349 199.74 95.4062 206.25 88.7656C212.76 81.9948 220.768 76.7865 230.273 73.1406C239.909 69.3646 250.781 67.4766 262.891 67.4766C277.604 67.4766 289.844 69.5599 299.609 73.7266C309.505 77.8932 317.383 83.362 323.242 90.1328C329.102 96.9036 333.203 104.521 335.547 112.984C338.021 121.318 339.258 129.716 339.258 138.18C339.258 145.341 338.672 151.982 337.5 158.102C336.458 164.091 335.221 170.732 333.789 178.023H294.727V162.203C294.727 144.495 292.188 130.953 287.109 121.578C282.031 112.073 273.763 107.32 262.305 107.32C252.799 107.32 245.703 109.99 241.016 115.328C236.328 120.536 233.984 127.568 233.984 136.422C233.984 141.109 234.31 145.341 234.961 149.117C235.742 152.893 236.784 156.409 238.086 159.664C239.518 162.789 241.211 165.849 243.164 168.844C245.117 171.839 247.331 174.964 249.805 178.219L308.594 249.312C319.271 263.245 327.474 276.656 333.203 289.547C338.932 302.307 341.797 315.849 341.797 330.172C341.797 342.021 339.909 352.698 336.133 362.203C332.487 371.708 327.214 379.781 320.312 386.422C313.411 393.062 305.078 398.206 295.312 401.852C285.547 405.367 274.544 407.125 262.305 407.125C247.201 407.125 234.635 405.107 224.609 401.07C214.714 397.034 206.771 391.695 200.781 385.055C194.922 378.414 190.755 370.862 188.281 362.398C185.938 353.935 184.766 345.276 184.766 336.422Z" fill="white"/>
<path d="M372.773 369.039C372.773 355.237 375.508 345.341 380.977 339.352C386.445 333.362 393.867 330.367 403.242 330.367C413.008 330.367 420.56 333.557 425.898 339.938C431.237 346.318 433.906 356.018 433.906 369.039C433.906 381.018 431.172 390.328 425.703 396.969C420.365 403.479 412.812 406.734 403.047 406.734C393.802 406.734 386.445 403.544 380.977 397.164C375.508 390.784 372.773 381.409 372.773 369.039Z" fill="url(#paint0_linear_1:6)"/>
<defs>
<linearGradient id="paint0_linear_1:6" x1="355" y1="0" x2="563.213" y2="50.2223" gradientUnits="userSpaceOnUse">
<stop stop-color="#EE7752"/>
<stop offset="1" stop-color="#E73C7E"/>
</linearGradient>
</defs>
</svg>
